<svg width="153" height="43" viewBox="0 0 153 43" fill="none" xmlns="http://www.w3.org/2000/svg">
<rect x="0.657166" width="152.343" height="43" rx="21.5" fill="#F3F3F3"/>
<path d="M22.882 27.6857L25.5357 16.7391L29.4499 24.8108L33.4305 16.7391L36.0842 27.6857H34.0939L32.8777 21.759L29.4499 28.3712L26.0886 21.7812L24.8723 27.6857H22.882ZM39.7424 17.5131V24.1032L46.4873 16.7391V27.6857H44.7181V21.0956L37.9733 28.4597V17.5131H39.7424ZM49.9133 17.5131H51.6824V21.4937H57.3215V17.5131H59.0907V27.6857H57.3215V23.1522H51.6824V27.6857H49.9133V17.5131ZM62.4173 17.5131H64.1865V21.4937H66.0662C66.2136 20.6681 66.5306 19.9383 67.0171 19.3044C67.5036 18.6704 68.1081 18.1765 68.8305 17.8227C69.5529 17.4689 70.349 17.292 71.2188 17.292C72.2213 17.292 73.1133 17.5205 73.8946 17.9775C74.6908 18.4345 75.3173 19.0611 75.7744 19.8572C76.2461 20.6533 76.482 21.5674 76.482 22.5994C76.482 23.6166 76.2461 24.5307 75.7744 25.3416C75.3173 26.1377 74.6908 26.7642 73.8946 27.2213C73.1133 27.6783 72.2213 27.9068 71.2188 27.9068C70.29 27.9068 69.4423 27.7078 68.6757 27.3097C67.9238 26.8969 67.3046 26.3367 66.8181 25.629C66.3463 24.9066 66.0662 24.081 65.9777 23.1522H64.1865V27.6857H62.4173V17.5131ZM67.7469 22.5994C67.7469 23.307 67.8943 23.9336 68.1892 24.4791C68.4988 25.0246 68.9116 25.4595 69.4276 25.7838C69.9583 26.0934 70.5554 26.2482 71.2188 26.2482C71.8822 26.2482 72.472 26.0934 72.988 25.7838C73.5187 25.4595 73.9315 25.0246 74.2264 24.4791C74.536 23.9336 74.6908 23.307 74.6908 22.5994C74.6908 21.8917 74.536 21.2652 74.2264 20.7197C73.9315 20.1594 73.5187 19.7245 72.988 19.4149C72.472 19.1053 71.8822 18.9505 71.2188 18.9505C70.5554 18.9505 69.9583 19.1053 69.4276 19.4149C68.9116 19.7245 68.4988 20.1594 68.1892 20.7197C67.8943 21.2652 67.7469 21.8917 67.7469 22.5994Z" fill="black"/>
<line x1="103.857" y1="13.5142" x2="134.571" y2="13.5142" stroke="black" stroke-width="2.45714"/>
<line x1="103.857" y1="19.6572" x2="134.571" y2="19.6572" stroke="black" stroke-width="2.45714"/>
<line x1="103.857" y1="25.8" x2="134.571" y2="25.8" stroke="black" stroke-width="2.45714"/>
</svg>
