<svg width="309" height="87" viewBox="0 0 309 87" fill="none" xmlns="http://www.w3.org/2000/svg">
<g style="mix-blend-mode:darken">
<rect x="0.171448" width="308.229" height="87" rx="43.5" fill="#9A1212"/>
</g>
<path d="M41.9628 45.1663C41.9628 43.0783 42.4251 41.229 43.3498 39.6182C44.3043 38.0075 45.587 36.7398 47.1977 35.8151C48.8085 34.8904 50.6131 34.428 52.6116 34.428C54.6399 34.428 56.4446 34.8904 58.0255 35.8151C59.6362 36.7398 60.9039 38.0075 61.8286 39.6182C62.7831 41.229 63.2604 43.0783 63.2604 45.1663C63.2604 47.2245 62.7831 49.0739 61.8286 50.7144C60.9039 52.3252 59.6362 53.5929 58.0255 54.5176C56.4446 55.4423 54.6399 55.9046 52.6116 55.9046C50.6131 55.9046 48.8085 55.4423 47.1977 54.5176C45.587 53.5929 44.3043 52.3252 43.3498 50.7144C42.4251 49.0739 41.9628 47.2245 41.9628 45.1663ZM45.587 45.1663C45.587 46.5981 45.8853 47.8658 46.4818 48.9695C47.1082 50.0731 47.9434 50.9531 48.9874 51.6093C50.0613 52.2357 51.2693 52.5489 52.6116 52.5489C53.9539 52.5489 55.147 52.2357 56.191 51.6093C57.2649 50.9531 58.1001 50.0731 58.6966 48.9695C59.323 47.8658 59.6362 46.5981 59.6362 45.1663C59.6362 43.7346 59.323 42.4668 58.6966 41.3632C58.1001 40.2297 57.2649 39.3498 56.191 38.7234C55.147 38.097 53.9539 37.7838 52.6116 37.7838C51.2693 37.7838 50.0613 38.097 48.9874 38.7234C47.9434 39.3498 47.1082 40.2297 46.4818 41.3632C45.8853 42.4668 45.587 43.7346 45.587 45.1663ZM81.368 34.8755H84.9474V42.0791L92.5537 34.8755H97.028L88.0794 43.3766L97.9228 55.4572H93.4485L84.9474 45.0321V55.4572H81.368V34.8755ZM98.8526 45.1663C98.8526 43.0783 99.315 41.229 100.24 39.6182C101.194 38.0075 102.477 36.7398 104.088 35.8151C105.698 34.8904 107.503 34.428 109.501 34.428C111.53 34.428 113.334 34.8904 114.915 35.8151C116.526 36.7398 117.794 38.0075 118.718 39.6182C119.673 41.229 120.15 43.0783 120.15 45.1663C120.15 47.2245 119.673 49.0739 118.718 50.7144C117.794 52.3252 116.526 53.5929 114.915 54.5176C113.334 55.4423 111.53 55.9046 109.501 55.9046C107.503 55.9046 105.698 55.4423 104.088 54.5176C102.477 53.5929 101.194 52.3252 100.24 50.7144C99.315 49.0739 98.8526 47.2245 98.8526 45.1663ZM102.477 45.1663C102.477 46.5981 102.775 47.8658 103.372 48.9695C103.998 50.0731 104.833 50.9531 105.877 51.6093C106.951 52.2357 108.159 52.5489 109.501 52.5489C110.844 52.5489 112.037 52.2357 113.081 51.6093C114.155 50.9531 114.99 50.0731 115.586 48.9695C116.213 47.8658 116.526 46.5981 116.526 45.1663C116.526 43.7346 116.213 42.4668 115.586 41.3632C114.99 40.2297 114.155 39.3498 113.081 38.7234C112.037 38.097 110.844 37.7838 109.501 37.7838C108.159 37.7838 106.951 38.097 105.877 38.7234C104.833 39.3498 103.998 40.2297 103.372 41.3632C102.775 42.4668 102.477 43.7346 102.477 45.1663ZM121.935 55.4572L127.305 33.3095L135.224 49.6406L143.278 33.3095L148.647 55.4572H144.62L142.159 43.4661L135.224 56.8442L128.423 43.5108L125.962 55.4572H121.935ZM169.024 34.8755V55.4572H165.444V38.2312H155.825V55.4572H152.245V34.8755H169.024ZM177.363 39.7077L175.618 36.9784C176.394 36.4116 177.438 35.8449 178.75 35.2782C180.063 34.7114 181.644 34.428 183.493 34.428C185.85 34.428 187.759 34.9799 189.22 36.0835C190.682 37.1574 191.413 38.6935 191.413 40.692V55.4572H187.833V52.5042C187.207 53.6078 186.267 54.4579 185.014 55.0545C183.762 55.6212 182.36 55.9046 180.809 55.9046C179.526 55.9046 178.348 55.666 177.274 55.1887C176.2 54.7115 175.335 54.0105 174.679 53.0858C174.052 52.1313 173.739 50.9531 173.739 49.5511C173.739 47.3736 174.515 45.6883 176.066 44.4952C177.647 43.2722 179.794 42.6607 182.509 42.6607C183.702 42.6607 184.746 42.8099 185.641 43.1082C186.536 43.4064 187.267 43.7495 187.833 44.1372V40.692C187.833 39.648 187.386 38.8725 186.491 38.3654C185.626 37.8285 184.627 37.56 183.493 37.56C182.032 37.56 180.764 37.8285 179.69 38.3654C178.646 38.9023 177.871 39.3498 177.363 39.7077ZM177.363 49.4169C177.363 50.5206 177.781 51.3558 178.616 51.9225C179.481 52.4594 180.51 52.7279 181.703 52.7279C183.493 52.7279 184.955 52.3252 186.088 51.5198C187.252 50.6846 187.833 49.3125 187.833 47.4035V46.5981C186.312 45.7927 184.597 45.39 182.688 45.39C180.868 45.39 179.526 45.748 178.661 46.4639C177.796 47.1798 177.363 48.1641 177.363 49.4169ZM197.469 34.8755H201.048V42.9292H212.458V34.8755H216.037V55.4572H212.458V46.2849H201.048V55.4572H197.469V34.8755ZM226.571 34.8755V48.2088L240.217 33.3095V55.4572H236.638V42.1238L222.991 57.0232V34.8755H226.571ZM250.952 34.8755V48.2088L264.599 33.3095V55.4572H261.019V42.1238L247.373 57.0232V34.8755H250.952Z" fill="white"/>
</svg>
