<svg width="153" height="43" viewBox="0 0 153 43" fill="none" xmlns="http://www.w3.org/2000/svg">
<rect x="0.457153" width="152.343" height="43" rx="21.5" fill="#F3F3F3"/>
<path d="M34.4257 17.5131V27.6857H32.6566V19.1717H27.902V27.6857H26.1329V17.5131H34.4257ZM39.4101 32.5508H37.6409V17.5131H39.4101V19.2601C39.7786 18.6262 40.2578 18.1397 40.8475 17.8006C41.452 17.4615 42.1301 17.292 42.882 17.292C43.8108 17.292 44.6512 17.5057 45.403 17.9333C46.1697 18.3608 46.7815 18.9726 47.2385 19.7688C47.6956 20.5501 47.9241 21.4937 47.9241 22.5994C47.9241 23.6904 47.6956 24.6339 47.2385 25.43C46.7815 26.2261 46.1697 26.838 45.403 27.2655C44.6512 27.693 43.8108 27.9068 42.882 27.9068C42.1301 27.9068 41.452 27.7373 40.8475 27.3982C40.2578 27.0591 39.7786 26.5726 39.4101 25.9386V32.5508ZM46.1328 22.5994C46.1328 21.818 45.9706 21.1546 45.6463 20.6091C45.3367 20.0636 44.9165 19.6508 44.3858 19.3707C43.8698 19.0906 43.2948 18.9505 42.6609 18.9505C42.1449 18.9505 41.6362 19.0906 41.135 19.3707C40.6337 19.6508 40.2209 20.0636 39.8966 20.6091C39.5722 21.1546 39.4101 21.818 39.4101 22.5994C39.4101 23.3808 39.5722 24.0442 39.8966 24.5897C40.2209 25.1352 40.6337 25.548 41.135 25.8281C41.6362 26.1082 42.1449 26.2482 42.6609 26.2482C43.2948 26.2482 43.8698 26.1082 44.3858 25.8281C44.9165 25.548 45.3367 25.1352 45.6463 24.5897C45.9706 24.0442 46.1328 23.3808 46.1328 22.5994ZM49.479 22.5994C49.479 21.5674 49.7075 20.6533 50.1645 19.8572C50.6363 19.0611 51.2702 18.4345 52.0663 17.9775C52.8625 17.5205 53.7544 17.292 54.7422 17.292C55.7447 17.292 56.6366 17.5205 57.418 17.9775C58.2141 18.4345 58.8407 19.0611 59.2977 19.8572C59.7695 20.6533 60.0054 21.5674 60.0054 22.5994C60.0054 23.6166 59.7695 24.5307 59.2977 25.3416C58.8407 26.1377 58.2141 26.7642 57.418 27.2213C56.6366 27.6783 55.7447 27.9068 54.7422 27.9068C53.7544 27.9068 52.8625 27.6783 52.0663 27.2213C51.2702 26.7642 50.6363 26.1377 50.1645 25.3416C49.7075 24.5307 49.479 23.6166 49.479 22.5994ZM51.2702 22.5994C51.2702 23.307 51.4177 23.9336 51.7125 24.4791C52.0221 25.0246 52.4349 25.4595 52.9509 25.7838C53.4817 26.0934 54.0787 26.2482 54.7422 26.2482C55.4056 26.2482 55.9953 26.0934 56.5113 25.7838C57.0421 25.4595 57.4549 25.0246 57.7497 24.4791C58.0593 23.9336 58.2141 23.307 58.2141 22.5994C58.2141 21.8917 58.0593 21.2652 57.7497 20.7197C57.4549 20.1594 57.0421 19.7245 56.5113 19.4149C55.9953 19.1053 55.4056 18.9505 54.7422 18.9505C54.0787 18.9505 53.4817 19.1053 52.9509 19.4149C52.4349 19.7245 52.0221 20.1594 51.7125 20.7197C51.4177 21.2652 51.2702 21.8917 51.2702 22.5994ZM71.3963 27.6857H62.44V29.676H60.5603V26.0271H62.3737L66.8629 16.7391L71.3521 26.0271H73.1654V29.676H71.3963V27.6857ZM66.8629 20.5649L64.3418 26.0271H69.3839L66.8629 20.5649ZM83.7889 17.5131L77.1547 32.5508H75.1644L77.9508 26.2482L74.0587 17.5131H76.1595L79.0123 24.5233L81.7987 17.5131H83.7889ZM85.3464 17.5131H87.1156V21.0735L90.875 17.5131H93.0864L88.6636 21.7148L93.5287 27.6857H91.3173L87.1156 22.533V27.6857H85.3464V17.5131ZM103.49 26.0271H105.259V29.676H103.711V27.6857H95.1968V17.5131H96.966V26.0271H101.721V17.5131H103.49V26.0271ZM109.581 17.5131V24.1032L116.325 16.7391V27.6857H114.556V21.0956L107.811 28.4597V17.5131H109.581ZM121.211 27.6857H119.265L122.228 23.5061C121.491 23.3586 120.894 23.049 120.437 22.5773C119.98 22.1055 119.751 21.4347 119.751 20.5649C119.751 19.8277 119.914 19.238 120.238 18.7957C120.562 18.3534 121.005 18.0291 121.565 17.8227C122.14 17.6163 122.774 17.5131 123.467 17.5131H127.668V27.6857H125.899V23.6166H124.086L121.211 27.6857ZM123.467 22.0686H125.899V19.0611H123.467C122.169 19.0611 121.521 19.5624 121.521 20.5649C121.521 21.5674 122.169 22.0686 123.467 22.0686Z" fill="black"/>
</svg>
