<svg width="124" height="35" viewBox="0 0 124 35" fill="none" xmlns="http://www.w3.org/2000/svg">
<rect width="124" height="35" rx="17.5" fill="white"/>
<path d="M18.09 22L20.25 13.09L23.436 19.66L26.676 13.09L28.836 22H27.216L26.226 17.176L23.436 22.558L20.7 17.194L19.71 22H18.09ZM37.4296 20.074C37.1536 20.494 36.8476 20.866 36.5116 21.19C36.1756 21.502 35.7676 21.748 35.2876 21.928C34.8076 22.096 34.2076 22.18 33.4876 22.18C32.7436 22.18 32.0716 21.994 31.4716 21.622C30.8836 21.25 30.4156 20.74 30.0676 20.092C29.7316 19.432 29.5636 18.688 29.5636 17.86C29.5636 17.704 29.5696 17.554 29.5816 17.41C29.5936 17.266 29.6116 17.122 29.6356 16.978C29.7556 16.294 29.9956 15.694 30.3556 15.178C30.7156 14.662 31.1776 14.26 31.7416 13.972C32.3176 13.684 32.9596 13.54 33.6676 13.54C34.4476 13.54 35.1316 13.714 35.7196 14.062C36.3076 14.41 36.7636 14.902 37.0876 15.538C37.4116 16.162 37.5736 16.912 37.5736 17.788C37.5736 17.86 37.5736 17.932 37.5736 18.004C37.5736 18.076 37.5676 18.148 37.5556 18.22H31.0396C31.0996 19.06 31.3636 19.708 31.8316 20.164C32.2996 20.608 32.9116 20.83 33.6676 20.83C34.2676 20.83 34.7776 20.692 35.1976 20.416C35.6296 20.14 35.9836 19.78 36.2596 19.336L37.4296 20.074ZM33.6676 14.8C32.9956 14.8 32.4136 14.998 31.9216 15.394C31.4296 15.778 31.1476 16.312 31.0756 16.996H36.0076C35.9356 16.348 35.7076 15.82 35.3236 15.412C34.9396 15.004 34.3876 14.8 33.6676 14.8ZM39.5473 13.72H40.9873V16.96H45.5773V13.72H47.0173V22H45.5773V18.31H40.9873V22H39.5473V13.72ZM49.725 13.72H51.165V16.96H52.695C52.815 16.288 53.073 15.694 53.469 15.178C53.865 14.662 54.357 14.26 54.945 13.972C55.533 13.684 56.181 13.54 56.889 13.54C57.705 13.54 58.431 13.726 59.067 14.098C59.715 14.47 60.225 14.98 60.597 15.628C60.981 16.276 61.173 17.02 61.173 17.86C61.173 18.688 60.981 19.432 60.597 20.092C60.225 20.74 59.715 21.25 59.067 21.622C58.431 21.994 57.705 22.18 56.889 22.18C56.133 22.18 55.443 22.018 54.819 21.694C54.207 21.358 53.703 20.902 53.307 20.326C52.923 19.738 52.695 19.066 52.623 18.31H51.165V22H49.725V13.72ZM54.063 17.86C54.063 18.436 54.183 18.946 54.423 19.39C54.675 19.834 55.011 20.188 55.431 20.452C55.863 20.704 56.349 20.83 56.889 20.83C57.429 20.83 57.909 20.704 58.329 20.452C58.761 20.188 59.097 19.834 59.337 19.39C59.589 18.946 59.715 18.436 59.715 17.86C59.715 17.284 59.589 16.774 59.337 16.33C59.097 15.874 58.761 15.52 58.329 15.268C57.909 15.016 57.429 14.89 56.889 14.89C56.349 14.89 55.863 15.016 55.431 15.268C55.011 15.52 54.675 15.874 54.423 16.33C54.183 16.774 54.063 17.284 54.063 17.86Z" fill="black"/>
<line x1="84" y1="11" x2="109" y2="11" stroke="black" stroke-width="2"/>
<line x1="84" y1="16" x2="109" y2="16" stroke="black" stroke-width="2"/>
<line x1="84" y1="21" x2="109" y2="21" stroke="black" stroke-width="2"/>
</svg>
