<svg width="124" height="35" viewBox="0 0 124 35" fill="none" xmlns="http://www.w3.org/2000/svg">
<rect width="124" height="35" rx="17.5" fill="white"/>
<path d="M16.8126 17.86C16.8126 17.02 16.9986 16.276 17.3706 15.628C17.7546 14.98 18.2706 14.47 18.9186 14.098C19.5666 13.726 20.2926 13.54 21.0966 13.54C21.9126 13.54 22.6386 13.726 23.2746 14.098C23.9226 14.47 24.4326 14.98 24.8046 15.628C25.1886 16.276 25.3806 17.02 25.3806 17.86C25.3806 18.688 25.1886 19.432 24.8046 20.092C24.4326 20.74 23.9226 21.25 23.2746 21.622C22.6386 21.994 21.9126 22.18 21.0966 22.18C20.2926 22.18 19.5666 21.994 18.9186 21.622C18.2706 21.25 17.7546 20.74 17.3706 20.092C16.9986 19.432 16.8126 18.688 16.8126 17.86ZM18.2706 17.86C18.2706 18.436 18.3906 18.946 18.6306 19.39C18.8826 19.834 19.2186 20.188 19.6386 20.452C20.0706 20.704 20.5566 20.83 21.0966 20.83C21.6366 20.83 22.1166 20.704 22.5366 20.452C22.9686 20.188 23.3046 19.834 23.5446 19.39C23.7966 18.946 23.9226 18.436 23.9226 17.86C23.9226 17.284 23.7966 16.774 23.5446 16.33C23.3046 15.874 22.9686 15.52 22.5366 15.268C22.1166 15.016 21.6366 14.89 21.0966 14.89C20.5566 14.89 20.0706 15.016 19.6386 15.268C19.2186 15.52 18.8826 15.874 18.6306 16.33C18.3906 16.774 18.2706 17.284 18.2706 17.86ZM32.6653 13.72H34.1053V16.618L37.1653 13.72H38.9653L35.3653 17.14L39.3253 22H37.5253L34.1053 17.806V22H32.6653V13.72ZM39.6993 17.86C39.6993 17.02 39.8853 16.276 40.2573 15.628C40.6413 14.98 41.1573 14.47 41.8053 14.098C42.4533 13.726 43.1793 13.54 43.9833 13.54C44.7993 13.54 45.5253 13.726 46.1613 14.098C46.8093 14.47 47.3193 14.98 47.6913 15.628C48.0753 16.276 48.2673 17.02 48.2673 17.86C48.2673 18.688 48.0753 19.432 47.6913 20.092C47.3193 20.74 46.8093 21.25 46.1613 21.622C45.5253 21.994 44.7993 22.18 43.9833 22.18C43.1793 22.18 42.4533 21.994 41.8053 21.622C41.1573 21.25 40.6413 20.74 40.2573 20.092C39.8853 19.432 39.6993 18.688 39.6993 17.86ZM41.1573 17.86C41.1573 18.436 41.2773 18.946 41.5173 19.39C41.7693 19.834 42.1053 20.188 42.5253 20.452C42.9573 20.704 43.4433 20.83 43.9833 20.83C44.5233 20.83 45.0033 20.704 45.4233 20.452C45.8553 20.188 46.1913 19.834 46.4313 19.39C46.6833 18.946 46.8093 18.436 46.8093 17.86C46.8093 17.284 46.6833 16.774 46.4313 16.33C46.1913 15.874 45.8553 15.52 45.4233 15.268C45.0033 15.016 44.5233 14.89 43.9833 14.89C43.4433 14.89 42.9573 15.016 42.5253 15.268C42.1053 15.52 41.7693 15.874 41.5173 16.33C41.2773 16.774 41.1573 17.284 41.1573 17.86ZM48.9855 22L51.1455 13.09L54.3315 19.66L57.5715 13.09L59.7315 22H58.1115L57.1215 17.176L54.3315 22.558L51.5955 17.194L50.6055 22H48.9855ZM67.9291 13.72V22H66.4891V15.07H62.6191V22H61.1791V13.72H67.9291ZM71.2841 15.664L70.5821 14.566C70.8941 14.338 71.3141 14.11 71.8421 13.882C72.3701 13.654 73.0061 13.54 73.7501 13.54C74.6981 13.54 75.4661 13.762 76.0541 14.206C76.6421 14.638 76.9361 15.256 76.9361 16.06V22H75.4961V20.812C75.2441 21.256 74.8661 21.598 74.3621 21.838C73.8581 22.066 73.2941 22.18 72.6701 22.18C72.1541 22.18 71.6801 22.084 71.2481 21.892C70.8161 21.7 70.4681 21.418 70.2041 21.046C69.9521 20.662 69.8261 20.188 69.8261 19.624C69.8261 18.748 70.1381 18.07 70.7621 17.59C71.3981 17.098 72.2621 16.852 73.3541 16.852C73.8341 16.852 74.2541 16.912 74.6141 17.032C74.9741 17.152 75.2681 17.29 75.4961 17.446V16.06C75.4961 15.64 75.3161 15.328 74.9561 15.124C74.6081 14.908 74.2061 14.8 73.7501 14.8C73.1621 14.8 72.6521 14.908 72.2201 15.124C71.8001 15.34 71.4881 15.52 71.2841 15.664ZM71.2841 19.57C71.2841 20.014 71.4521 20.35 71.7881 20.578C72.1361 20.794 72.5501 20.902 73.0301 20.902C73.7501 20.902 74.3381 20.74 74.7941 20.416C75.2621 20.08 75.4961 19.528 75.4961 18.76V18.436C74.8841 18.112 74.1941 17.95 73.4261 17.95C72.6941 17.95 72.1541 18.094 71.8061 18.382C71.4581 18.67 71.2841 19.066 71.2841 19.57ZM79.3725 13.72H80.8125V16.96H85.4025V13.72H86.8425V22H85.4025V18.31H80.8125V22H79.3725V13.72ZM91.0802 13.72V19.084L96.5702 13.09V22H95.1302V16.636L89.6402 22.63V13.72H91.0802ZM100.889 13.72V19.084L106.379 13.09V22H104.939V16.636L99.4488 22.63V13.72H100.889Z" fill="black"/>
</svg>
