<svg width="309" height="87" viewBox="0 0 309 87" fill="none" xmlns="http://www.w3.org/2000/svg">
<g style="mix-blend-mode:darken">
<rect width="308.229" height="87" rx="43.5" fill="#9A1212"/>
</g>
<path d="M68.7271 34.8754V55.4572H65.1477V38.2312H55.528V55.4572H51.9486V34.8754H68.7271ZM78.8117 65.3006H75.2323V34.8754H78.8117V38.4101C79.5575 37.1275 80.5269 36.1432 81.72 35.4571C82.943 34.771 84.3151 34.428 85.8364 34.428C87.7156 34.428 89.4158 34.8605 90.9371 35.7256C92.4881 36.5906 93.726 37.8285 94.6507 39.4392C95.5754 41.0201 96.0377 42.9292 96.0377 45.1663C96.0377 47.3736 95.5754 49.2826 94.6507 50.8934C93.726 52.5041 92.4881 53.742 90.9371 54.607C89.4158 55.4721 87.7156 55.9046 85.8364 55.9046C84.3151 55.9046 82.943 55.5616 81.72 54.8755C80.5269 54.1894 79.5575 53.2051 78.8117 51.9225V65.3006ZM92.4136 45.1663C92.4136 43.5854 92.0855 42.2431 91.4292 41.1394C90.8028 40.0358 89.9527 39.2006 88.8789 38.6338C87.8349 38.0671 86.6716 37.7837 85.3889 37.7837C84.3449 37.7837 83.3159 38.0671 82.3017 38.6338C81.2875 39.2006 80.4523 40.0358 79.7961 41.1394C79.1399 42.2431 78.8117 43.5854 78.8117 45.1663C78.8117 46.7472 79.1399 48.0895 79.7961 49.1932C80.4523 50.2968 81.2875 51.132 82.3017 51.6988C83.3159 52.2655 84.3449 52.5489 85.3889 52.5489C86.6716 52.5489 87.8349 52.2655 88.8789 51.6988C89.9527 51.132 90.8028 50.2968 91.4292 49.1932C92.0855 48.0895 92.4136 46.7472 92.4136 45.1663ZM99.1837 45.1663C99.1837 43.0783 99.6461 41.2289 100.571 39.6182C101.525 38.0074 102.808 36.7397 104.419 35.815C106.029 34.8904 107.834 34.428 109.833 34.428C111.861 34.428 113.666 34.8904 115.246 35.815C116.857 36.7397 118.125 38.0074 119.05 39.6182C120.004 41.2289 120.481 43.0783 120.481 45.1663C120.481 47.2245 120.004 49.0738 119.05 50.7144C118.125 52.3252 116.857 53.5929 115.246 54.5176C113.666 55.4422 111.861 55.9046 109.833 55.9046C107.834 55.9046 106.029 55.4422 104.419 54.5176C102.808 53.5929 101.525 52.3252 100.571 50.7144C99.6461 49.0738 99.1837 47.2245 99.1837 45.1663ZM102.808 45.1663C102.808 46.5981 103.106 47.8658 103.703 48.9694C104.329 50.0731 105.164 50.953 106.208 51.6093C107.282 52.2357 108.49 52.5489 109.833 52.5489C111.175 52.5489 112.368 52.2357 113.412 51.6093C114.486 50.953 115.321 50.0731 115.918 48.9694C116.544 47.8658 116.857 46.5981 116.857 45.1663C116.857 43.7345 116.544 42.4668 115.918 41.3632C115.321 40.2297 114.486 39.3497 113.412 38.7233C112.368 38.0969 111.175 37.7837 109.833 37.7837C108.49 37.7837 107.282 38.0969 106.208 38.7233C105.164 39.3497 104.329 40.2297 103.703 41.3632C103.106 42.4668 102.808 43.7345 102.808 45.1663ZM143.528 55.4572H125.407V59.484H121.604V52.1014H125.273L134.356 33.3094L143.439 52.1014H147.108V59.484H143.528V55.4572ZM134.356 41.05L129.255 52.1014H139.456L134.356 41.05ZM168.602 34.8754L155.179 65.3006H151.152L156.789 52.5489L148.915 34.8754H153.165L158.937 49.0589L164.575 34.8754H168.602ZM171.753 34.8754H175.332V42.079L182.939 34.8754H187.413L178.464 43.3766L188.308 55.4572H183.833L175.332 45.0321V55.4572H171.753V34.8754ZM208.461 52.1014H212.041V59.484H208.909V55.4572H191.683V34.8754H195.262V52.1014H204.882V34.8754H208.461V52.1014ZM220.785 34.8754V48.2088L234.431 33.3094V55.4572H230.852V42.1238L217.205 57.0232V34.8754H220.785ZM244.316 55.4572H240.379L246.374 47.0008C244.883 46.7025 243.675 46.0761 242.75 45.1216C241.825 44.167 241.363 42.8098 241.363 41.05C241.363 39.5585 241.691 38.3654 242.347 37.4705C243.003 36.5757 243.898 35.9194 245.032 35.5018C246.195 35.0842 247.478 34.8754 248.88 34.8754H257.381V55.4572H253.801V47.2245H250.132L244.316 55.4572ZM248.88 44.0925H253.801V38.0074H248.88C246.255 38.0074 244.942 39.0216 244.942 41.05C244.942 43.0783 246.255 44.0925 248.88 44.0925Z" fill="white"/>
</svg>
