<svg width="124" height="35" viewBox="0 0 124 35" fill="none" xmlns="http://www.w3.org/2000/svg">
<rect width="124" height="35" rx="17.5" fill="white"/>
<path d="M27.6488 13.72V22H26.2088V15.07H22.3388V22H20.8988V13.72H27.6488ZM31.7059 25.96H30.2659V13.72H31.7059V15.142C32.0059 14.626 32.3959 14.23 32.8759 13.954C33.3679 13.678 33.9199 13.54 34.5319 13.54C35.2879 13.54 35.9719 13.714 36.5839 14.062C37.2079 14.41 37.7059 14.908 38.0779 15.556C38.4499 16.192 38.6359 16.96 38.6359 17.86C38.6359 18.748 38.4499 19.516 38.0779 20.164C37.7059 20.812 37.2079 21.31 36.5839 21.658C35.9719 22.006 35.2879 22.18 34.5319 22.18C33.9199 22.18 33.3679 22.042 32.8759 21.766C32.3959 21.49 32.0059 21.094 31.7059 20.578V25.96ZM37.1779 17.86C37.1779 17.224 37.0459 16.684 36.7819 16.24C36.5299 15.796 36.1879 15.46 35.7559 15.232C35.3359 15.004 34.8679 14.89 34.3519 14.89C33.9319 14.89 33.5179 15.004 33.1099 15.232C32.7019 15.46 32.3659 15.796 32.1019 16.24C31.8379 16.684 31.7059 17.224 31.7059 17.86C31.7059 18.496 31.8379 19.036 32.1019 19.48C32.3659 19.924 32.7019 20.26 33.1099 20.488C33.5179 20.716 33.9319 20.83 34.3519 20.83C34.8679 20.83 35.3359 20.716 35.7559 20.488C36.1879 20.26 36.5299 19.924 36.7819 19.48C37.0459 19.036 37.1779 18.496 37.1779 17.86ZM39.9015 17.86C39.9015 17.02 40.0875 16.276 40.4595 15.628C40.8435 14.98 41.3595 14.47 42.0075 14.098C42.6555 13.726 43.3815 13.54 44.1855 13.54C45.0015 13.54 45.7275 13.726 46.3635 14.098C47.0115 14.47 47.5215 14.98 47.8935 15.628C48.2775 16.276 48.4695 17.02 48.4695 17.86C48.4695 18.688 48.2775 19.432 47.8935 20.092C47.5215 20.74 47.0115 21.25 46.3635 21.622C45.7275 21.994 45.0015 22.18 44.1855 22.18C43.3815 22.18 42.6555 21.994 42.0075 21.622C41.3595 21.25 40.8435 20.74 40.4595 20.092C40.0875 19.432 39.9015 18.688 39.9015 17.86ZM41.3595 17.86C41.3595 18.436 41.4795 18.946 41.7195 19.39C41.9715 19.834 42.3075 20.188 42.7275 20.452C43.1595 20.704 43.6455 20.83 44.1855 20.83C44.7255 20.83 45.2055 20.704 45.6255 20.452C46.0575 20.188 46.3935 19.834 46.6335 19.39C46.8855 18.946 47.0115 18.436 47.0115 17.86C47.0115 17.284 46.8855 16.774 46.6335 16.33C46.3935 15.874 46.0575 15.52 45.6255 15.268C45.2055 15.016 44.7255 14.89 44.1855 14.89C43.6455 14.89 43.1595 15.016 42.7275 15.268C42.3075 15.52 41.9715 15.874 41.7195 16.33C41.4795 16.774 41.3595 17.284 41.3595 17.86ZM57.7412 22H50.4512V23.62H48.9212V20.65H50.3972L54.0512 13.09L57.7052 20.65H59.1812V23.62H57.7412V22ZM54.0512 16.204L51.9992 20.65H56.1032L54.0512 16.204ZM67.8282 13.72L62.4282 25.96H60.8082L63.0762 20.83L59.9082 13.72H61.6182L63.9402 19.426L66.2082 13.72H67.8282ZM69.0959 13.72H70.5359V16.618L73.5959 13.72H75.3959L71.7959 17.14L75.7559 22H73.9559L70.5359 17.806V22H69.0959V13.72ZM83.8637 20.65H85.3037V23.62H84.0437V22H77.1137V13.72H78.5537V20.65H82.4237V13.72H83.8637V20.65ZM88.8214 13.72V19.084L94.3114 13.09V22H92.8714V16.636L87.3814 22.63V13.72H88.8214ZM98.288 22H96.704L99.116 18.598C98.516 18.478 98.03 18.226 97.658 17.842C97.286 17.458 97.1 16.912 97.1 16.204C97.1 15.604 97.232 15.124 97.496 14.764C97.76 14.404 98.12 14.14 98.576 13.972C99.044 13.804 99.56 13.72 100.124 13.72H103.544V22H102.104V18.688H100.628L98.288 22ZM100.124 17.428H102.104V14.98H100.124C99.068 14.98 98.54 15.388 98.54 16.204C98.54 17.02 99.068 17.428 100.124 17.428Z" fill="black"/>
</svg>
