<svg width="153" height="43" viewBox="0 0 153 43" fill="none" xmlns="http://www.w3.org/2000/svg">
<rect x="0.0571289" width="152.343" height="43" rx="21.5" fill="#F3F3F3"/>
<path d="M20.7126 22.5994C20.7126 21.5674 20.9411 20.6533 21.3982 19.8572C21.8699 19.0611 22.5039 18.4345 23.3 17.9775C24.0961 17.5205 24.9881 17.292 25.9758 17.292C26.9783 17.292 27.8703 17.5205 28.6517 17.9775C29.4478 18.4345 30.0743 19.0611 30.5314 19.8572C31.0031 20.6533 31.239 21.5674 31.239 22.5994C31.239 23.6166 31.0031 24.5307 30.5314 25.3416C30.0743 26.1377 29.4478 26.7642 28.6517 27.2213C27.8703 27.6783 26.9783 27.9068 25.9758 27.9068C24.9881 27.9068 24.0961 27.6783 23.3 27.2213C22.5039 26.7642 21.8699 26.1377 21.3982 25.3416C20.9411 24.5307 20.7126 23.6166 20.7126 22.5994ZM22.5039 22.5994C22.5039 23.307 22.6513 23.9336 22.9462 24.4791C23.2558 25.0246 23.6686 25.4595 24.1846 25.7838C24.7153 26.0934 25.3124 26.2482 25.9758 26.2482C26.6393 26.2482 27.229 26.0934 27.745 25.7838C28.2757 25.4595 28.6885 25.0246 28.9834 24.4791C29.293 23.9336 29.4478 23.307 29.4478 22.5994C29.4478 21.8917 29.293 21.2652 28.9834 20.7197C28.6885 20.1594 28.2757 19.7245 27.745 19.4149C27.229 19.1053 26.6393 18.9505 25.9758 18.9505C25.3124 18.9505 24.7153 19.1053 24.1846 19.4149C23.6686 19.7245 23.2558 20.1594 22.9462 20.7197C22.6513 21.2652 22.5039 21.8917 22.5039 22.5994ZM40.1887 17.5131H41.9579V21.0735L45.7173 17.5131H47.9287L43.5059 21.7148L48.371 27.6857H46.1596L41.9579 22.533V27.6857H40.1887V17.5131ZM48.8306 22.5994C48.8306 21.5674 49.0591 20.6533 49.5161 19.8572C49.9879 19.0611 50.6219 18.4345 51.418 17.9775C52.2141 17.5205 53.106 17.292 54.0938 17.292C55.0963 17.292 55.9883 17.5205 56.7696 17.9775C57.5657 18.4345 58.1923 19.0611 58.6493 19.8572C59.1211 20.6533 59.357 21.5674 59.357 22.5994C59.357 23.6166 59.1211 24.5307 58.6493 25.3416C58.1923 26.1377 57.5657 26.7642 56.7696 27.2213C55.9883 27.6783 55.0963 27.9068 54.0938 27.9068C53.106 27.9068 52.2141 27.6783 51.418 27.2213C50.6219 26.7642 49.9879 26.1377 49.5161 25.3416C49.0591 24.5307 48.8306 23.6166 48.8306 22.5994ZM50.6219 22.5994C50.6219 23.307 50.7693 23.9336 51.0641 24.4791C51.3737 25.0246 51.7865 25.4595 52.3025 25.7838C52.8333 26.0934 53.4304 26.2482 54.0938 26.2482C54.7572 26.2482 55.3469 26.0934 55.8629 25.7838C56.3937 25.4595 56.8065 25.0246 57.1013 24.4791C57.4109 23.9336 57.5657 23.307 57.5657 22.5994C57.5657 21.8917 57.4109 21.2652 57.1013 20.7197C56.8065 20.1594 56.3937 19.7245 55.8629 19.4149C55.3469 19.1053 54.7572 18.9505 54.0938 18.9505C53.4304 18.9505 52.8333 19.1053 52.3025 19.4149C51.7865 19.7245 51.3737 20.1594 51.0641 20.7197C50.7693 21.2652 50.6219 21.8917 50.6219 22.5994ZM60.2393 27.6857L62.893 16.7391L66.8073 24.8108L70.7878 16.7391L73.4416 27.6857H71.4513L70.235 21.759L66.8073 28.3712L63.4459 21.7812L62.2296 27.6857H60.2393ZM83.5129 17.5131V27.6857H81.7437V19.1717H76.9892V27.6857H75.22V17.5131H83.5129ZM87.6348 19.9014L86.7723 18.5525C87.1556 18.2724 87.6716 17.9922 88.3203 17.7121C88.969 17.432 89.7504 17.292 90.6644 17.292C91.8291 17.292 92.7727 17.5647 93.4951 18.1102C94.2175 18.6409 94.5787 19.4002 94.5787 20.388V27.6857H92.8095V26.2261C92.4999 26.7716 92.0355 27.1918 91.4163 27.4866C90.7971 27.7668 90.1042 27.9068 89.3376 27.9068C88.7036 27.9068 88.1213 27.7889 87.5905 27.553C87.0598 27.3171 86.6323 26.9706 86.3079 26.5136C85.9983 26.0418 85.8435 25.4595 85.8435 24.7666C85.8435 23.6904 86.2268 22.8574 86.9935 22.2677C87.7748 21.6632 88.8363 21.361 90.1779 21.361C90.7676 21.361 91.2836 21.4347 91.7259 21.5821C92.1682 21.7296 92.5294 21.8991 92.8095 22.0908V20.388C92.8095 19.872 92.5884 19.4886 92.1461 19.238C91.7185 18.9726 91.2247 18.84 90.6644 18.84C89.942 18.84 89.3155 18.9726 88.7847 19.238C88.2687 19.5034 87.8854 19.7245 87.6348 19.9014ZM87.6348 24.7002C87.6348 25.2457 87.8412 25.6585 88.254 25.9386C88.6815 26.204 89.1901 26.3367 89.7799 26.3367C90.6644 26.3367 91.3868 26.1377 91.9471 25.7396C92.522 25.3268 92.8095 24.6486 92.8095 23.7051V23.307C92.0576 22.909 91.2099 22.71 90.2664 22.71C89.3671 22.71 88.7036 22.8869 88.2761 23.2407C87.8485 23.5945 87.6348 24.081 87.6348 24.7002ZM97.5719 17.5131H99.341V21.4937H104.98V17.5131H106.749V27.6857H104.98V23.1522H99.341V27.6857H97.5719V17.5131ZM111.956 17.5131V24.1032L118.701 16.7391V27.6857H116.931V21.0956L110.187 28.4597V17.5131H111.956ZM124.006 17.5131V24.1032L130.751 16.7391V27.6857H128.982V21.0956L122.237 28.4597V17.5131H124.006Z" fill="black"/>
</svg>
