<svg width="140" height="36" viewBox="0 0 140 36" fill="none" xmlns="http://www.w3.org/2000/svg">
<rect x="2.93018" width="128.93" height="36" rx="18" fill="white"/>
<path d="M29.2801 10.6353H21.5443V23.093H19.8364V9.0279H30.988V23.093H29.2801V10.6353ZM33.2955 18.4716C33.2955 17.5339 33.5032 16.7034 33.9184 15.9801C34.3471 15.2567 34.9231 14.6874 35.6464 14.2722C36.3698 13.8569 37.1802 13.6493 38.0777 13.6493C38.9886 13.6493 39.799 13.8569 40.5089 14.2722C41.2323 14.6874 41.8016 15.2567 42.2169 15.9801C42.6455 16.7034 42.8598 17.5339 42.8598 18.4716C42.8598 19.3959 42.6455 20.2264 42.2169 20.9632C41.8016 21.6865 41.2323 22.2558 40.5089 22.6711C39.799 23.0863 38.9886 23.2939 38.0777 23.2939C37.1802 23.2939 36.3698 23.0863 35.6464 22.6711C34.9231 22.2558 34.3471 21.6865 33.9184 20.9632C33.5032 20.2264 33.2955 19.3959 33.2955 18.4716ZM34.9231 18.4716C34.9231 19.1146 35.057 19.6839 35.3249 20.1795C35.6062 20.6752 35.9813 21.0703 36.4502 21.365C36.9324 21.6463 37.4749 21.787 38.0777 21.787C38.6805 21.787 39.2163 21.6463 39.6851 21.365C40.1674 21.0703 40.5424 20.6752 40.8103 20.1795C41.0916 19.6839 41.2323 19.1146 41.2323 18.4716C41.2323 17.8286 41.0916 17.2593 40.8103 16.7637C40.5424 16.2547 40.1674 15.8595 39.6851 15.5782C39.2163 15.2969 38.6805 15.1563 38.0777 15.1563C37.4749 15.1563 36.9324 15.2969 36.4502 15.5782C35.9813 15.8595 35.6062 16.2547 35.3249 16.7637C35.057 17.2593 34.9231 17.8286 34.9231 18.4716ZM53.2096 23.093H45.0719V24.9014H43.364V21.586H45.0117L49.0905 13.147L53.1694 21.586H54.8171V24.9014H53.2096V23.093ZM49.0905 16.6231L46.7999 21.586H51.3812L49.0905 16.6231ZM58.7407 27.5135H57.1332V13.8502H58.7407V15.4376C59.0756 14.8616 59.5109 14.4195 60.0467 14.1114C60.5959 13.8033 61.2121 13.6493 61.8953 13.6493C62.7392 13.6493 63.5027 13.8435 64.1859 14.232C64.8825 14.6205 65.4384 15.1764 65.8536 15.8997C66.2689 16.6097 66.4765 17.467 66.4765 18.4716C66.4765 19.4629 66.2689 20.3202 65.8536 21.0435C65.4384 21.7669 64.8825 22.3228 64.1859 22.7113C63.5027 23.0997 62.7392 23.2939 61.8953 23.2939C61.2121 23.2939 60.5959 23.1399 60.0467 22.8318C59.5109 22.5237 59.0756 22.0817 58.7407 21.5057V27.5135ZM64.849 18.4716C64.849 17.7617 64.7016 17.1589 64.4069 16.6632C64.1256 16.1676 63.7439 15.7926 63.2616 15.538C62.7928 15.2835 62.2704 15.1563 61.6944 15.1563C61.2255 15.1563 60.7634 15.2835 60.3079 15.538C59.8525 15.7926 59.4774 16.1676 59.1827 16.6632C58.888 17.1589 58.7407 17.7617 58.7407 18.4716C58.7407 19.1816 58.888 19.7844 59.1827 20.28C59.4774 20.7756 59.8525 21.1507 60.3079 21.4052C60.7634 21.6597 61.2255 21.787 61.6944 21.787C62.2704 21.787 62.7928 21.6597 63.2616 21.4052C63.7439 21.1507 64.1256 20.7756 64.4069 20.28C64.7016 19.7844 64.849 19.1816 64.849 18.4716ZM67.8893 18.4716C67.8893 17.5339 68.0969 16.7034 68.5122 15.9801C68.9408 15.2567 69.5168 14.6874 70.2402 14.2722C70.9635 13.8569 71.7739 13.6493 72.6714 13.6493C73.5823 13.6493 74.3927 13.8569 75.1027 14.2722C75.826 14.6874 76.3953 15.2567 76.8106 15.9801C77.2393 16.7034 77.4536 17.5339 77.4536 18.4716C77.4536 19.3959 77.2393 20.2264 76.8106 20.9632C76.3953 21.6865 75.826 22.2558 75.1027 22.6711C74.3927 23.0863 73.5823 23.2939 72.6714 23.2939C71.7739 23.2939 70.9635 23.0863 70.2402 22.6711C69.5168 22.2558 68.9408 21.6865 68.5122 20.9632C68.0969 20.2264 67.8893 19.3959 67.8893 18.4716ZM69.5168 18.4716C69.5168 19.1146 69.6508 19.6839 69.9187 20.1795C70.2 20.6752 70.5751 21.0703 71.0439 21.365C71.5261 21.6463 72.0686 21.787 72.6714 21.787C73.2742 21.787 73.81 21.6463 74.2789 21.365C74.7611 21.0703 75.1362 20.6752 75.4041 20.1795C75.6854 19.6839 75.826 19.1146 75.826 18.4716C75.826 17.8286 75.6854 17.2593 75.4041 16.7637C75.1362 16.2547 74.7611 15.8595 74.2789 15.5782C73.81 15.2969 73.2742 15.1563 72.6714 15.1563C72.0686 15.1563 71.5261 15.2969 71.0439 15.5782C70.5751 15.8595 70.2 16.2547 69.9187 16.7637C69.6508 17.2593 69.5168 17.8286 69.5168 18.4716ZM78.858 17.266C78.858 16.0069 78.9786 14.8951 79.2197 13.9306C79.4608 12.9661 79.8828 12.149 80.4856 11.4792C81.1018 10.8095 81.9457 10.2871 83.0173 9.91199C83.9282 9.6039 84.6047 9.23553 85.0467 8.80688C85.5021 8.36483 85.7767 7.90269 85.8705 7.42046H87.4579C87.3641 8.31795 86.9421 9.08818 86.192 9.73116C85.4419 10.3741 84.5176 10.8698 83.4192 11.218C82.6422 11.4726 82.0327 11.8409 81.5907 12.3232C81.1487 12.8054 80.8272 13.3546 80.6262 13.9708C80.4253 14.5736 80.3114 15.1898 80.2847 15.8193C80.6061 15.1228 81.0549 14.587 81.6309 14.2119C82.2203 13.8368 82.89 13.6493 83.6402 13.6493C84.5511 13.6493 85.3615 13.8569 86.0714 14.2722C86.7948 14.6874 87.3641 15.2567 87.7794 15.9801C88.208 16.7034 88.4223 17.5339 88.4223 18.4716C88.4223 19.3959 88.208 20.2264 87.7794 20.9632C87.3641 21.6865 86.7948 22.2558 86.0714 22.6711C85.3615 23.0863 84.5511 23.2939 83.6402 23.2939C82.7427 23.2939 81.9323 23.0729 81.2089 22.6309C80.4856 22.1754 79.9096 21.499 79.4809 20.6015C79.0657 19.704 78.858 18.5922 78.858 17.266ZM80.4655 18.4716C80.4655 19.1146 80.6061 19.6839 80.8874 20.1795C81.1687 20.6752 81.5438 21.0703 82.0127 21.365C82.4949 21.6463 83.0374 21.787 83.6402 21.787C84.243 21.787 84.7788 21.6463 85.2476 21.365C85.7299 21.0703 86.1049 20.6752 86.3728 20.1795C86.6541 19.6839 86.7948 19.1146 86.7948 18.4716C86.7948 17.8286 86.6541 17.2593 86.3728 16.7637C86.1049 16.2547 85.7299 15.8595 85.2476 15.5782C84.7788 15.2969 84.243 15.1563 83.6402 15.1563C83.1714 15.1563 82.6891 15.2835 82.1935 15.538C81.7113 15.7926 81.3027 16.1676 80.9678 16.6632C80.6329 17.1589 80.4655 17.7617 80.4655 18.4716ZM90.6305 13.8502H92.238V17.467H97.3617V13.8502H98.9691V23.093H97.3617V18.9739H92.238V23.093H90.6305V13.8502ZM109.969 20.9431C109.661 21.4119 109.319 21.8272 108.944 22.1888C108.569 22.5371 108.113 22.8117 107.578 23.0126C107.042 23.2002 106.372 23.2939 105.568 23.2939C104.738 23.2939 103.988 23.0863 103.318 22.6711C102.661 22.2558 102.139 21.6865 101.751 20.9632C101.376 20.2264 101.188 19.3959 101.188 18.4716C101.188 18.2975 101.195 18.13 101.208 17.9693C101.221 17.8086 101.242 17.6478 101.268 17.4871C101.402 16.7235 101.67 16.0538 102.072 15.4778C102.474 14.9018 102.99 14.453 103.619 14.1315C104.262 13.81 104.979 13.6493 105.769 13.6493C106.64 13.6493 107.403 13.8435 108.06 14.232C108.716 14.6205 109.225 15.1697 109.587 15.8796C109.949 16.5762 110.129 17.4134 110.129 18.3912C110.129 18.4716 110.129 18.552 110.129 18.6324C110.129 18.7127 110.123 18.7931 110.109 18.8735H102.836C102.903 19.8112 103.197 20.5345 103.72 21.0435C104.242 21.5392 104.925 21.787 105.769 21.787C106.439 21.787 107.008 21.6329 107.477 21.3248C107.959 21.0167 108.355 20.6149 108.663 20.1193L109.969 20.9431ZM105.769 15.0558C105.019 15.0558 104.369 15.2768 103.82 15.7189C103.271 16.1475 102.956 16.7436 102.876 17.5072H108.381C108.301 16.7838 108.046 16.1944 107.618 15.739C107.189 15.2835 106.573 15.0558 105.769 15.0558ZM120.309 20.9431C120.001 21.4119 119.66 21.8272 119.285 22.1888C118.91 22.5371 118.454 22.8117 117.918 23.0126C117.383 23.2002 116.713 23.2939 115.909 23.2939C115.079 23.2939 114.328 23.0863 113.659 22.6711C113.002 22.2558 112.48 21.6865 112.091 20.9632C111.716 20.2264 111.529 19.3959 111.529 18.4716C111.529 18.2975 111.536 18.13 111.549 17.9693C111.562 17.8086 111.582 17.6478 111.609 17.4871C111.743 16.7235 112.011 16.0538 112.413 15.4778C112.815 14.9018 113.331 14.453 113.96 14.1315C114.603 13.81 115.32 13.6493 116.11 13.6493C116.981 13.6493 117.744 13.8435 118.401 14.232C119.057 14.6205 119.566 15.1697 119.928 15.8796C120.289 16.5762 120.47 17.4134 120.47 18.3912C120.47 18.4716 120.47 18.552 120.47 18.6324C120.47 18.7127 120.464 18.7931 120.45 18.8735H113.176C113.243 19.8112 113.538 20.5345 114.061 21.0435C114.583 21.5392 115.266 21.787 116.11 21.787C116.78 21.787 117.349 21.6329 117.818 21.3248C118.3 21.0167 118.695 20.6149 119.003 20.1193L120.309 20.9431ZM116.11 15.0558C115.36 15.0558 114.71 15.2768 114.161 15.7189C113.612 16.1475 113.297 16.7436 113.217 17.5072H118.722C118.642 16.7838 118.387 16.1944 117.959 15.739C117.53 15.2835 116.914 15.0558 116.11 15.0558Z" fill="black"/>
</svg>
